<svg xmlns="http://www.w3.org/2000/svg" xmlns:xlink="http://www.w3.org/1999/xlink" height="512" style="" version="1.1" width="512" xml:space="preserve"><rect id="backgroundrect" width="100%" height="100%" x="0" y="0" fill="none" stroke="none"/><g class="currentLayer" style=""><title>Layer 1</title><path d="M512,255.999C512,114.483,397.427,0,255.811,0   C114.577,0,0,114.483,0,255.999C0,397.118,114.577,512,255.811,512C397.427,512,512,397.118,512,255.999L512,255.999z" style="fill-rule: evenodd; clip-rule: evenodd;" id="svg_2" class="" fill="#e9e98a" fill-opacity="1"/><path fill="#e84141" stroke-dashoffset="" fill-rule="nonzero" marker-start="" marker-mid="" marker-end="" id="svg_1" d="M110.02981474683656,161.15348605077781 L233.10673350549132,161.15348605077781 L233.10673350549132,284.23040480941586 L356.1836522641373,284.23040480941586 L356.1836522641373,407.30732356806203 L110.02981474683656,407.30732356806203 L110.02981474683656,161.15348605077781 z" style="color: rgb(0, 0, 0);" class="" fill-opacity="1"/><path fill="#67e767" stroke-dashoffset="" fill-rule="nonzero" marker-start="" marker-mid="" marker-end="" id="svg_7" d="M178.52430535237758,125.73861894675476 L287.3155208255804,125.73861894675476 L287.3155208255804,234.5298344199576 L396.10673629877766,234.5298344199576 L396.10673629877766,343.3210498931601 L178.52430535237758,343.3210498931601 L178.52430535237758,125.73861894675476 z" style="color: rgb(0, 0, 0);" class="" transform="rotate(-179.96156311035156 287.3155212402344,234.5298309326172) "/></g></svg>