<svg width="512" height="512" xmlns="http://www.w3.org/2000/svg">
 <g id="Layer_1">
  <title>Layer 1</title>
  <path id="svg_26" d="m90.50147,359.77338l330.74498,0.12628l-10.73275,15.86255l-309.15276,-0.37882l-10.85948,-15.61001l0.00001,0zm2.27292,-211.00795l326.32542,-0.37882l9.47033,16.27256l-345.39249,0.12628l9.59675,-16.02002zm-32.20433,105.73324l390.48137,-0.37882l-0.50474,16.27257l-389.72409,-0.25254l-0.25254,-15.64121zm390.80461,1.50927c0,107.72824 -87.65433,195.36625 -195.41377,195.36625c-107.71288,0 -195.35088,-87.65386 -195.35088,-195.36625c0,-107.71292 87.65383,-195.35092 195.35088,-195.35092c107.75945,-0.01583 195.41377,87.638 195.41377,195.35092zm-195.39842,-211.00796c-116.31112,0 -210.96041,94.64931 -210.96041,210.99209c0,116.35864 94.6493,211.00793 210.96041,211.00793c116.37445,0 211.00794,-94.64929 211.00794,-211.00793c0,-116.34279 -94.63347,-210.99209 -211.00794,-210.99209zm59.20141,211.00796c0,115.11659 -31.18839,195.36625 -59.20141,195.36625c-27.98133,0 -59.16922,-80.24966 -59.16922,-195.36625c0,-115.14828 31.17252,-195.35092 59.16922,-195.35092c27.99721,-0.01583 59.20141,80.20264 59.20141,195.35092zm-59.20141,-211.00796c-48.58968,0 -74.81043,108.71843 -74.81043,210.99209c0,102.30489 26.22075,211.00793 74.81043,211.00793c48.59018,0 74.85844,-108.71885 74.85844,-211.00793c-0.01584,-102.27367 -26.26827,-210.99209 -74.85844,-210.99209zm138.64942,211.00796c0,107.72824 -62.21938,195.36625 -138.64942,195.36625c-76.41416,0 -138.60189,-87.65386 -138.60189,-195.36625c0,-107.71292 62.18773,-195.35092 138.60189,-195.35092c76.43004,-0.01583 138.64942,87.638 138.64942,195.35092zm-138.64942,-211.00796c-85.02873,0 -154.24308,94.64931 -154.24308,210.99209c0,116.35864 69.21435,211.00793 154.24308,211.00793c85.06041,0 154.25941,-94.64929 154.25941,-211.00793c0,-116.34279 -69.19899,-210.99209 -154.25941,-210.99209z" stroke-width="4" stroke="#0000bf" fill="#007fff"/>
 </g>
</svg>